HIERARCHY
ROOT SimulationBone
{
	OFFSET 0.000000 0.000000 0.000000
	CHANNELS 6 Xposition Yposition Zposition Zrotation Yrotation Xrotation 
	JOINT Hips
	{
		OFFSET 0.000000 0.000000 0.000000
		CHANNELS 6 Xposition Yposition Zposition Zrotation Yrotation Xrotation 
		JOINT LeftUpLeg
		{
			OFFSET 0.103458 1.857831 10.548505
			CHANNELS 3 Zrotation Yrotation Xrotation
			JOINT LeftLeg
			{
				OFFSET 43.500000 -0.000031 0.000002
				CHANNELS 3 Zrotation Yrotation Xrotation
				JOINT LeftFoot
				{
					OFFSET 42.372200 0.000023 0.000003
					CHANNELS 3 Zrotation Yrotation Xrotation
					JOINT LeftToe
					{
						OFFSET 17.299997 -0.000001 -0.000010
						CHANNELS 3 Zrotation Yrotation Xrotation
						End Site
						{
							OFFSET 0.000000 0.000000 0.000000
						}
					}
				}
			}
		}
		JOINT RightUpLeg
		{
			OFFSET 0.103457 1.857828 -10.548510
			CHANNELS 3 Zrotation Yrotation Xrotation
			JOINT RightLeg
			{
				OFFSET 43.500046 -0.000015 0.000002
				CHANNELS 3 Zrotation Yrotation Xrotation
				JOINT RightFoot
				{
					OFFSET 42.372261 -0.000008 0.000023
					CHANNELS 3 Zrotation Yrotation Xrotation
					JOINT RightToe
					{
						OFFSET 17.299990 -0.000007 -0.000002
						CHANNELS 3 Zrotation Yrotation Xrotation
						End Site
						{
							OFFSET 0.000000 0.000000 0.000000
						}
					}
				}
			}
		}
		JOINT Spine
		{
			OFFSET 6.901967 -2.603726 -0.000001
			CHANNELS 3 Zrotation Yrotation Xrotation
			JOINT Spine1
			{
				OFFSET 12.588100 -0.000009 -0.000003
				CHANNELS 3 Zrotation Yrotation Xrotation
				JOINT Spine2
				{
					OFFSET 12.343202 0.000008 0.000008
					CHANNELS 3 Zrotation Yrotation Xrotation
					JOINT Neck
					{
						OFFSET 25.832897 -0.000015 -0.000004
						CHANNELS 3 Zrotation Yrotation Xrotation
						JOINT Head
						{
							OFFSET 11.766609 0.000013 -0.000006
							CHANNELS 3 Zrotation Yrotation Xrotation
							End Site
							{
								OFFSET 0.000000 0.000000 0.000000
							}
						}
					}
					JOINT LeftShoulder
					{
						OFFSET 19.745911 -1.480373 6.000098
						CHANNELS 3 Zrotation Yrotation Xrotation
						JOINT LeftArm
						{
							OFFSET 11.284123 -0.000007 -0.000032
							CHANNELS 3 Zrotation Yrotation Xrotation
							JOINT LeftForeArm
							{
								OFFSET 33.000050 0.000005 0.000031
								CHANNELS 3 Zrotation Yrotation Xrotation
								JOINT LeftHand
								{
									OFFSET 25.200008 0.000017 0.000013
									CHANNELS 3 Zrotation Yrotation Xrotation
									End Site
									{
										OFFSET 0.000000 0.000000 0.000000
									}
								}
							}
						}
					}
					JOINT RightShoulder
					{
						OFFSET 19.746092 -1.480379 -6.000077
						CHANNELS 3 Zrotation Yrotation Xrotation
						JOINT RightArm
						{
							OFFSET 11.284136 -0.000017 -0.000017
							CHANNELS 3 Zrotation Yrotation Xrotation
							JOINT RightForeArm
							{
								OFFSET 33.000099 0.000019 0.000015
								CHANNELS 3 Zrotation Yrotation Xrotation
								JOINT RightHand
								{
									OFFSET 25.199780 0.000140 0.000408
									CHANNELS 3 Zrotation Yrotation Xrotation
									End Site
									{
										OFFSET 0.000000 0.000000 0.000000
									}
								}
							}
						}
					}
				}
			}
		}
	}
}
MOTION
Frames: 5
Frame Time: 0.016667
-48.488110 0.000000 -545.415026 0.000000 169.277981 0.000000 0.457315 89.884773 -1.729210 95.985827 -3.942042 -179.311394 -178.164405 8.020492 -177.632156 -25.453796 -4.323465 -7.638583 85.302887 6.010477 3.469743 21.454557 0.003108 0.000017 147.270188 6.279403 -177.926769 -63.876133 0.247020 5.859175 68.591593 -2.465576 5.161595 21.454555 -0.003090 0.000000 8.828395 -0.547663 -1.531645 7.657692 -0.992898 -3.096194 7.340040 -1.011706 -3.090153 14.901294 4.488852 11.303680 -8.365264 -10.238612 14.848630 -173.410784 -75.364208 -8.181346 -18.209970 58.489756 15.241472 -69.417841 -16.995850 2.642290 0.839063 -3.141858 21.345524 -169.438865 76.780501 12.285794 10.207804 -53.391450 -41.617028 -33.232233 16.755451 -1.408945 10.198785 -0.126860 -18.171541 
-50.817807 0.000000 -545.752706 0.000000 169.754852 0.000000 0.444756 89.824831 -1.730947 95.897340 -4.090828 -178.920638 -176.217839 7.928601 -177.251646 -24.448108 -4.538565 -7.150294 85.348581 5.729994 3.716210 21.454557 0.003108 0.000017 147.143445 6.658984 -176.746548 -57.245423 0.004816 6.224521 68.116515 -2.690520 5.204879 21.454553 -0.003090 -0.000000 8.778852 -0.550169 -1.669841 7.559752 -0.990229 -3.372081 7.242188 -1.010703 -3.366051 14.645140 4.989151 11.509932 -8.517333 -10.327646 15.130387 -173.917629 -75.699082 -7.665398 -18.810575 57.819905 14.014704 -72.421095 -15.734113 2.681101 0.688626 -2.991622 22.223610 -167.858087 76.962182 13.899076 12.121551 -52.094055 -45.111410 -34.334779 16.869319 -1.440759 8.755769 1.017563 -19.259552 
-53.141763 0.000000 -546.087911 0.000000 170.209133 0.000000 0.437603 89.678391 -1.736445 95.782429 -4.266801 -178.614030 -174.352818 7.844804 -176.912049 -23.555589 -4.754049 -6.694484 85.489891 5.463488 3.927095 21.454558 0.003108 0.000017 147.456885 6.909394 -175.525890 -49.800947 -0.322141 6.285444 67.647907 -2.777262 5.078728 21.454553 -0.003090 -0.000000 8.726050 -0.573609 -1.795691 7.455887 -1.030511 -3.624644 7.138408 -1.052506 -3.618368 14.378163 5.487070 11.726138 -8.562848 -10.400543 15.408319 -174.192118 -75.973719 -7.386972 -19.333276 57.192386 12.718171 -75.101037 -14.494063 2.707257 0.415886 -3.062951 22.918403 -166.554640 77.066700 15.228812 13.504656 -50.941940 -47.813734 -35.101946 16.818704 -1.455039 7.535920 2.472676 -19.807460 
-55.456656 0.000000 -546.415035 0.000000 170.640325 0.000000 0.457528 89.492475 -1.730624 95.692986 -4.308661 -178.440067 -172.455461 7.607675 -176.279358 -22.644446 -5.106960 -6.479344 85.714799 5.349256 4.084463 21.454558 0.003108 0.000017 148.269184 6.783141 -174.734613 -41.580656 -0.367472 6.215833 67.532652 -2.729181 5.111947 21.454553 -0.003092 0.000001 8.679118 -0.586180 -1.887625 7.363207 -1.051273 -3.808764 7.045806 -1.074375 -3.802363 14.032694 6.047948 11.868314 -8.396934 -10.664196 15.646304 -174.297642 -76.172886 -7.280783 -19.758631 56.664702 11.276033 -77.378647 -13.335917 2.722955 0.093915 -2.963056 23.560636 -165.586172 77.029089 16.217178 14.379556 -49.868358 -49.738257 -35.425170 16.613975 -1.449557 6.288277 3.945414 -19.999666 
-57.762750 0.000000 -546.731177 0.000000 171.048416 0.000000 0.469980 89.295601 -1.712246 95.606801 -4.230199 -178.394776 -170.560547 7.243195 -175.675689 -21.693232 -5.459357 -6.344786 85.912734 5.280926 4.196087 21.454557 0.003108 0.000017 149.570610 6.378493 -174.345319 -32.657961 -0.187415 5.933733 67.169104 -2.315065 5.678967 21.454553 -0.003093 0.000001 8.628192 -0.588397 -1.944559 7.261921 -1.053837 -3.922252 6.944579 -1.077622 -3.915838 13.730632 6.624768 11.953660 -8.186403 -11.039998 15.852968 -174.397310 -76.291063 -7.179975 -19.996109 56.232990 9.848525 -79.272015 -12.247248 2.730065 -0.253904 -2.916477 24.164210 -164.717620 76.946106 17.104019 14.835755 -49.007566 -50.906574 -35.316407 16.270769 -1.424615 5.367784 4.965191 -19.918628 
